<svg xmlns="http://www.w3.org/2000/svg" fill="none" viewBox="0 0 64 64" height="64" width="64">
<path fill="white" d="M49.1279 58.8515H49.0679C48.6879 58.9419 48.2878 58.9921 47.8677 58.9921H16.1423C15.7322 58.9921 15.3221 58.9419 14.9421 58.8615H14.9121L14.882 58.8515C9.31109 57.9781 5.00034 52.9984 5.00034 46.9545C5.00034 40.2781 10.2412 34.9169 16.6524 34.9169H17.6225L17.6725 33.9631C18.1126 26.1623 24.3837 20.0079 32.005 20.0079C33.0352 20.0079 34.0453 20.1184 35.0155 20.3392C34.7455 19.6365 34.5254 18.9136 34.3554 18.1707C33.5853 18.0602 32.8051 18 32.005 18C23.5735 18 16.6824 24.566 15.7622 32.9491C8.61097 33.421 3 39.5251 3 46.9545C3 53.9421 7.97086 59.7651 14.522 60.8193C14.522 60.8293 14.552 60.8293 14.572 60.8293H14.582C15.0821 60.9398 15.6022 61 16.1423 61H16.5523C16.5523 61 16.6123 61 16.6524 61H16.6924C16.6924 61 16.7224 60.99 16.7424 60.99L47.2676 61C47.2676 61 47.3276 61 47.3576 61C47.3876 61 47.4177 60.99 47.4577 60.99L47.8677 61C48.4078 61 48.9279 60.9398 49.438 60.8293H49.478C49.478 60.8293 49.478 60.8293 49.478 60.8193C52.7486 60.2972 55.6291 58.5804 57.6894 56.1107C59.7598 53.6509 61 50.4483 61 46.9545C61 39.5251 55.379 33.421 48.2278 32.9491C48.1178 31.905 47.9077 30.8809 47.6077 29.897C46.8476 29.8368 46.1174 29.7063 45.3973 29.5356C45.9174 30.9211 46.2374 32.407 46.3275 33.9631L46.3775 34.9169H47.3476C53.7587 34.9169 58.9997 40.2781 58.9997 46.9545C58.9997 52.9984 54.6889 57.9781 49.118 58.8515"></path>
<path fill="white" d="M31 45H29C29 43.4 29.31 41.86 29.92 40.4C30.52 38.94 31.4 37.63 32.52 36.51C33.63 35.4 34.94 34.52 36.41 33.91C37.88 33.3 39.43 33 41 33V35C39.69 35 38.4 35.26 37.17 35.76C35.96 36.26 34.84 37.01 33.93 37.93C33 38.86 32.27 39.95 31.76 41.17C31.25 42.38 31 43.67 31 45Z"></path>
<path fill="#FF4438" d="M61 15.5C61 22.4 55.41 28 48.5 28C47.1 28 45.75 27.77 44.5 27.34H44.48C43.81 27.11 43.17 26.83 42.56 26.5C42.52 26.48 42.47 26.45 42.42 26.42C40.84 25.54 39.47 24.33 38.41 22.88C37.8 22.04 37.28 21.13 36.89 20.15C36.32 18.71 36 17.14 36 15.5C36 8.6 41.6 3 48.5 3C55.4 3 61 8.6 61 15.5Z"></path>
<path fill="white" d="M55.2005 16.1766C54.1612 17.3968 53.0428 18.8055 50.7946 18.8055C48.795 18.8055 48.0494 17.1416 47.9929 15.7995C48.4335 16.6647 49.2921 17.3746 50.6252 17.3413C53.2009 17.2637 54.9633 15.0785 54.9633 13.093C54.9633 10.7193 53.0767 9 49.8005 9C47.4507 9 44.5473 9.843 42.6381 11.163C42.6155 12.5273 43.4289 14.302 43.7226 14.1024C45.372 12.9932 46.6825 12.2722 47.9591 11.9061C46.0724 13.8805 41.5536 18.4616 41 19.2713C41.0565 20.0145 42.0393 22 42.5138 22C42.6607 22 42.785 21.9224 42.9318 21.7893C44.2875 20.3473 45.4059 19.0606 46.3887 17.8183C46.5356 19.6374 47.4846 21.8669 50.1507 21.8669C52.5344 21.8669 54.9068 20.2474 55.98 16.5981C56.1156 16.1544 55.5282 15.7995 55.2005 16.1766ZM52.4779 13.2261C52.4779 14.3797 51.2691 14.9454 50.1733 14.9454C49.5858 14.9454 49.134 14.8012 48.7724 14.6126C49.439 13.6809 50.0829 12.7159 50.7833 11.6954C52.0147 11.884 52.4779 12.5273 52.4779 13.2261Z"></path>
</svg>
