<svg xmlns="http://www.w3.org/2000/svg" fill="none" viewBox="0 0 32 32" height="32" width="32">
<path fill="white" d="M21.0605 14.6743H27.0274V20.6412H21.0605V14.6743ZM23.0495 16.6633V18.6522H25.0385V16.6633H23.0495Z" clip-rule="evenodd" fill-rule="evenodd"></path>
<path fill="white" d="M7.90268 16.9627C7.37715 16.9627 6.85162 16.8611 6.36328 16.6578L7.13918 14.7986C7.54572 14.9672 7.98944 14.9969 8.42324 14.8804C8.93886 14.7416 9.36771 14.4144 9.63295 13.9533C9.89323 13.5021 9.96016 12.9766 9.82382 12.4784L11.7673 11.9479C12.0449 12.9692 11.9086 14.0376 11.3806 14.9573C10.8476 15.8844 9.98495 16.5487 8.94629 16.8239C8.60668 16.9156 8.25468 16.9602 7.90516 16.9602L7.90268 16.9627Z"></path>
<path fill="white" d="M12.1587 19.1759L10.2673 19.87C10.3491 20.0956 10.3392 20.341 10.2376 20.5591C10.2376 20.5641 10.2301 20.5666 10.2277 20.5715C9.26585 19.813 7.97187 19.4882 6.7002 19.8328L7.22076 21.7787C8.28173 21.4962 9.3774 22.1159 9.66496 23.1595C9.77899 23.5809 9.75172 24.0147 9.58315 24.4138L11.4374 25.1996C11.7795 24.3915 11.8414 23.4768 11.6084 22.6265C11.5712 22.4927 11.5117 22.3762 11.4622 22.2497C11.7076 22.0093 11.9158 21.7292 12.0645 21.4094C12.3942 20.7004 12.4289 19.9072 12.1587 19.1759Z"></path>
<path fill="white" d="M10.7311 5C8.75299 5 6.95331 6.09071 6.01876 7.77141C6.01876 7.77141 6.0138 7.7838 6.00885 7.78876C5.97662 7.84825 5.93696 7.90031 5.90721 7.9598C2.45163 8.76792 0 11.7872 0 15.342C0 16.5665 0.297468 17.7614 0.867614 18.8372C0.297468 19.7717 0 20.8253 0 21.9234C0 25.1361 2.5607 27.7712 5.77831 27.9472C6.60874 29.8881 8.54476 31.1871 10.7311 31.1871C13.4753 31.1871 15.7732 29.1593 16.088 26.378L16.1153 10.3098C16.1153 7.38222 13.7009 5 10.7311 5ZM14.1 25.0543L14.0777 26.2417C13.8868 27.9124 12.449 29.1717 10.7287 29.1717C9.18431 29.1717 7.84323 28.1479 7.46644 26.678L7.19872 25.8674L6.35837 25.9293C6.27905 25.9343 6.19724 25.9417 6.11792 25.9417C3.85469 25.9417 2.01286 24.1396 2.01286 21.9234C2.01286 21.0434 2.3029 20.2056 2.85321 19.4966L3.29445 18.9289L2.90279 18.3266C2.32273 17.4366 2.01534 16.4029 2.01534 15.3395C2.01534 13.0217 3.4531 11.0237 5.56017 10.1883C5.58248 10.3346 5.59239 10.4808 5.63205 10.6271C5.89234 11.6063 6.52198 12.4218 7.40199 12.9275L8.40594 11.1799C7.99444 10.9444 7.69946 10.5626 7.57799 10.1065C7.459 9.65537 7.52097 9.18438 7.75895 8.7828H7.75647C8.33157 7.70696 9.47435 7.01039 10.7336 7.01039C12.5928 7.01039 14.1024 8.48781 14.1024 10.3048V25.0493L14.1 25.0543Z"></path>
<path fill="white" d="M19.6221 10.8291C20.2218 11.6199 20.9652 12.2954 21.8135 12.8174H19.2041V22.4971H28.8838V13.4609C29.5828 13.1905 30.2342 12.826 30.8223 12.3809C30.8538 12.5214 30.872 12.6673 30.8721 12.8174V14.0107H32V16H30.8721V19.3154H32V21.3047H30.8721V22.4971C30.8721 23.5954 29.9821 24.4861 28.8838 24.4863H27.6904V25.6133H25.7012V24.4863H22.3867V25.6133H20.3975V24.4863H19.2041C18.1056 24.4863 17.2148 23.5955 17.2148 22.4971V21.3037H16.0879V19.3154H17.2148V16.001H16.0879V14.0117H17.2148V12.8174C17.2152 11.7192 18.1058 10.8291 19.2041 10.8291H19.6221Z"></path>
<circle fill="#FF4438" r="6" cy="6" cx="26"></circle>
<path fill="white" d="M28.6777 6.31034C28.2627 6.87706 27.8144 7.52474 26.9179 7.52474C26.1172 7.52474 25.8189 6.75932 25.7979 6.13752C25.9733 6.53957 26.3163 6.86514 26.8515 6.85008C27.8808 6.81409 28.5864 5.8066 28.5864 4.88906C28.5864 3.7916 27.831 3 26.5195 3C25.5815 3 24.4194 3.38681 23.6558 3.9985C23.6475 4.62819 23.9712 5.44678 24.0874 5.35682C24.7494 4.84097 25.2744 4.5089 25.7836 4.34239C25.0299 5.25327 23.2214 7.3683 23 7.74063C23.0249 8.08246 23.415 9 23.606 9C23.6641 9 23.7139 8.96402 23.772 8.90105C24.3172 8.23719 24.7616 7.642 25.1569 7.06831C25.2124 7.90912 25.594 8.93703 26.6606 8.93703C27.6152 8.93703 28.5615 8.1904 28.9931 6.50825C29.0429 6.30135 28.8105 6.13943 28.6777 6.31034ZM27.5903 4.95202C27.5903 5.48276 27.1089 5.74363 26.6689 5.74363C26.4338 5.74363 26.2531 5.67671 26.1102 5.58976C26.3731 5.1584 26.6333 4.71609 26.9129 4.24258C27.4058 4.333 27.5903 4.62994 27.5903 4.95202Z"></path>
</svg>
