<svg xmlns="http://www.w3.org/2000/svg" fill="none" viewBox="0 0 64 64" height="64" width="64">
<path fill="white" d="M20 19C11.59 19 3.07 20.92 3.01 24.58H3V52.03C3 55.72 11.55 57.65 20 57.65C23.53 57.65 27.07 57.32 30 56.65V54.6C27.53 55.21 24.17 55.65 20 55.65C10.3 55.65 5 53.26 5 52.03V46.11C8.02 47.98 14.03 48.95 20 48.95C23.53 48.95 27.07 48.61 30 47.94V45.9C27.53 46.51 24.17 46.95 20 46.95C10.3 46.95 5 44.56 5 43.33V37.16C8.02 39.03 14.03 40 20 40C25.97 40 31.98 39.03 35 37.16V39.17H37V24.58C36.93 20.92 28.42 19 20 19ZM35 34.38C35 35.61 29.71 38 20 38C10.29 38 5 35.61 5 34.38V27.4C8.02 29.27 14.03 30.24 20 30.24C25.97 30.24 31.98 29.27 35 27.4V34.38ZM20 28.24C10.3 28.24 5 25.85 5 24.62C5 23.39 10.3 21 20 21C29.7 21 35 23.39 35 24.62C35 25.85 29.71 28.24 20 28.24Z"></path>
<path fill="white" d="M56 41H35C33.35 41 32 42.35 32 44V58C32 59.65 33.35 61 35 61H56C57.66 61 59 59.65 59 58V44C59 42.35 57.66 41 56 41ZM57 58C57 58.55 56.55 59 56 59H35C34.45 59 34 58.55 34 58V44C34 43.45 34.45 43 35 43H56C56.55 43 57 43.45 57 44V58Z"></path>
<path fill="white" d="M48.5102 47.9L51.8502 50.97L48.4902 54.15L49.8702 55.6L54.7802 50.95L49.8602 46.42L48.5102 47.9Z"></path>
<path fill="white" d="M42.5595 47.89L41.1895 46.43L39.9995 47.56L36.9995 50.4L36.2695 51.09L36.9995 51.76L39.9995 54.52L41.1995 55.62L42.5495 54.14L39.9995 51.8L39.1995 51.07L39.9995 50.31L42.5595 47.89Z"></path>
<path fill="white" d="M43.3701 54.58L45.2801 55.18L47.6801 47.46L45.7701 46.86L43.3701 54.58Z"></path>
<path fill="#FF4438" d="M61 15.5C61 22.4 55.41 28 48.5 28C47.1 28 45.75 27.77 44.5 27.34H44.48C43.81 27.11 43.17 26.83 42.56 26.5C42.52 26.48 42.47 26.45 42.42 26.42C40.84 25.54 39.47 24.33 38.41 22.88C37.8 22.04 37.28 21.13 36.89 20.15C36.32 18.71 36 17.14 36 15.5C36 8.6 41.6 3 48.5 3C55.4 3 61 8.6 61 15.5Z"></path>
<path fill="white" d="M55.2005 16.1766C54.1612 17.3968 53.0428 18.8055 50.7946 18.8055C48.795 18.8055 48.0494 17.1416 47.9929 15.7995C48.4335 16.6647 49.2921 17.3746 50.6252 17.3413C53.2009 17.2637 54.9633 15.0785 54.9633 13.093C54.9633 10.7193 53.0767 9 49.8005 9C47.4507 9 44.5473 9.843 42.6381 11.163C42.6155 12.5273 43.4289 14.302 43.7226 14.1024C45.372 12.9932 46.6825 12.2722 47.9591 11.9061C46.0724 13.8805 41.5536 18.4616 41 19.2713C41.0565 20.0145 42.0393 22 42.5138 22C42.6607 22 42.785 21.9224 42.9318 21.7893C44.2875 20.3473 45.4059 19.0606 46.3887 17.8183C46.5356 19.6374 47.4846 21.8669 50.1507 21.8669C52.5344 21.8669 54.9068 20.2474 55.98 16.5981C56.1156 16.1544 55.5282 15.7995 55.2005 16.1766ZM52.4779 13.2261C52.4779 14.3797 51.2691 14.9454 50.1733 14.9454C49.5858 14.9454 49.134 14.8012 48.7724 14.6126C49.439 13.6809 50.0829 12.7159 50.7833 11.6954C52.0147 11.884 52.4779 12.5273 52.4779 13.2261Z"></path>
</svg>
