<svg xmlns="http://www.w3.org/2000/svg" fill="none" viewBox="0 0 64 64" height="64" width="64">
<path fill="white" d="M48.549 30C48.0279 30 47.5068 29.97 46.9956 29.92V46.6L26 58.69L5.00436 46.6V22.4L26 10.31L33.5264 14.64C33.5264 13.9 33.6065 13.17 33.7368 12.46L26 8L3 21.25V47.75L26 61L49 47.75V29.99C48.8497 30 48.6993 30 48.549 30Z"></path>
<path fill="white" d="M37.6575 34.9263C38.3659 34.2666 38.8249 33.3328 38.8249 32.2772C38.8249 30.2981 37.2385 28.6843 35.2929 28.6843C33.3473 28.6843 31.7509 30.2981 31.7509 32.2772C31.7509 33.3328 32.2098 34.2767 32.9282 34.9364C32.4393 35.0785 31.9804 35.2612 31.5813 35.4947C30.8729 35.0278 30.0447 34.6725 29.1468 34.3985C30.1844 33.4038 30.8429 32.0032 30.8429 30.4402C30.8429 27.4359 28.4483 25 25.495 25C22.5417 25 20.1471 27.446 20.1471 30.4402C20.1471 32.0032 20.8056 33.4038 21.8433 34.3985C20.9453 34.6725 20.1172 35.0379 19.4088 35.4947C19.0097 35.2714 18.5607 35.0887 18.0718 34.9466C18.7902 34.2869 19.2491 33.3429 19.2491 32.2874C19.2491 30.3082 17.6627 28.6944 15.7071 28.6944C13.7515 28.6944 12.1751 30.3082 12.1751 32.2874C12.1751 33.3429 12.6341 34.2767 13.3425 34.9364C11.3569 35.5454 10 36.8851 10 38.4888V41.0465H16.5253V44H34.4648V41.0465H41V38.4888C41 36.8851 39.6431 35.5353 37.6675 34.9364L37.6575 34.9263ZM35.2929 30.7041C36.141 30.7041 36.8294 31.4044 36.8294 32.2671C36.8294 33.1298 36.141 33.8301 35.2929 33.8301C34.4448 33.8301 33.7464 33.1298 33.7464 32.2671C33.7464 31.4044 34.4448 30.7041 35.2929 30.7041ZM22.1426 30.43C22.1426 28.5524 23.6492 27.0198 25.495 27.0198C27.3408 27.0198 28.8474 28.5524 28.8474 30.43C28.8474 32.3077 27.3508 33.8403 25.505 33.8403C23.6592 33.8403 22.1625 32.3077 22.1625 30.43H22.1426ZM15.7071 30.7041C16.5652 30.7041 17.2536 31.4044 17.2536 32.2671C17.2536 33.1298 16.5552 33.8301 15.7071 33.8301C14.859 33.8301 14.1706 33.1298 14.1706 32.2671C14.1706 31.4044 14.859 30.7041 15.7071 30.7041ZM11.9955 38.4786C11.9955 37.5956 13.5819 36.6111 15.7071 36.6111C16.4654 36.6111 17.1638 36.7329 17.7425 36.9359C17.2237 37.5652 16.8545 38.2655 16.6649 39.0064H11.9955V38.4786ZM32.4693 41.9599H18.5208V40.1432C18.5208 39.7473 18.6106 39.3718 18.7902 39.0064C18.9199 38.7019 19.1194 38.4177 19.3589 38.1437C19.7679 37.6768 20.3267 37.2607 20.9752 36.9257C22.2024 36.266 23.7889 35.8702 25.495 35.8702C27.2111 35.8702 28.7876 36.266 30.0148 36.9257C30.6733 37.2708 31.2221 37.687 31.6312 38.1538C31.8706 38.4177 32.0702 38.7121 32.1999 39.0064C32.3495 39.3007 32.4294 39.6052 32.4593 39.9199V41.9599H32.4693ZM39.0045 39.0064H34.335C34.1455 38.2655 33.7763 37.5652 33.2575 36.9359C33.8362 36.7329 34.5246 36.6111 35.2929 36.6111C37.4181 36.6111 39.0045 37.5956 39.0045 38.4786V39.0064Z"></path>
<path fill="#FF4438" d="M61 15.5C61 22.4 55.41 28 48.5 28C47.1 28 45.75 27.77 44.5 27.34H44.48C43.81 27.11 43.17 26.83 42.56 26.5C42.52 26.48 42.47 26.45 42.42 26.42C40.84 25.54 39.47 24.33 38.41 22.88C37.8 22.04 37.28 21.13 36.89 20.15C36.32 18.71 36 17.14 36 15.5C36 8.6 41.6 3 48.5 3C55.4 3 61 8.6 61 15.5Z"></path>
<path fill="white" d="M55.2005 16.1766C54.1612 17.3968 53.0428 18.8055 50.7946 18.8055C48.795 18.8055 48.0494 17.1416 47.9929 15.7995C48.4335 16.6647 49.2921 17.3746 50.6252 17.3413C53.2009 17.2637 54.9633 15.0785 54.9633 13.093C54.9633 10.7193 53.0767 9 49.8005 9C47.4507 9 44.5473 9.843 42.6381 11.163C42.6155 12.5273 43.4289 14.302 43.7226 14.1024C45.372 12.9932 46.6825 12.2722 47.9591 11.9061C46.0724 13.8805 41.5536 18.4616 41 19.2713C41.0565 20.0145 42.0393 22 42.5138 22C42.6607 22 42.785 21.9224 42.9318 21.7893C44.2875 20.3473 45.4059 19.0606 46.3887 17.8183C46.5356 19.6374 47.4846 21.8669 50.1507 21.8669C52.5344 21.8669 54.9068 20.2474 55.98 16.5981C56.1156 16.1544 55.5282 15.7995 55.2005 16.1766ZM52.4779 13.2261C52.4779 14.3797 51.2691 14.9454 50.1733 14.9454C49.5858 14.9454 49.134 14.8012 48.7724 14.6126C49.439 13.6809 50.0829 12.7159 50.7833 11.6954C52.0147 11.884 52.4779 12.5273 52.4779 13.2261Z"></path>
</svg>
