<svg xmlns="http://www.w3.org/2000/svg" fill="none" viewBox="0 0 64 64" height="64" width="64">
<path fill="#FF4438" d="M61 15.5C61 22.4 55.41 28 48.5 28C47.1 28 45.75 27.77 44.5 27.34H44.48C43.81 27.11 43.17 26.83 42.56 26.5C42.52 26.48 42.47 26.45 42.42 26.42C40.84 25.54 39.47 24.33 38.41 22.88C37.8 22.04 37.28 21.13 36.89 20.15C36.32 18.71 36 17.14 36 15.5C36 8.6 41.6 3 48.5 3C55.4 3 61 8.6 61 15.5Z"></path>
<path fill="white" d="M55.2005 16.1766C54.1612 17.3968 53.0428 18.8055 50.7946 18.8055C48.795 18.8055 48.0494 17.1416 47.9929 15.7995C48.4335 16.6647 49.2921 17.3746 50.6252 17.3413C53.2009 17.2637 54.9633 15.0785 54.9633 13.093C54.9633 10.7193 53.0767 9 49.8005 9C47.4507 9 44.5473 9.843 42.6381 11.163C42.6155 12.5273 43.4289 14.302 43.7226 14.1024C45.372 12.9932 46.6825 12.2722 47.9591 11.9061C46.0724 13.8805 41.5536 18.4616 41 19.2713C41.0565 20.0145 42.0393 22 42.5138 22C42.6607 22 42.785 21.9224 42.9318 21.7893C44.2875 20.3473 45.4059 19.0606 46.3887 17.8183C46.5356 19.6374 47.4846 21.8669 50.1507 21.8669C52.5344 21.8669 54.9068 20.2474 55.98 16.5981C56.1156 16.1544 55.5282 15.7995 55.2005 16.1766ZM52.4779 13.2261C52.4779 14.3797 51.2691 14.9454 50.1733 14.9454C49.5858 14.9454 49.134 14.8012 48.7724 14.6126C49.439 13.6809 50.0829 12.7159 50.7833 11.6954C52.0147 11.884 52.4779 12.5273 52.4779 13.2261Z"></path>
<path fill="white" d="M33.495 60.9799C33.0679 60.9799 32.6905 60.7084 32.5514 60.2961L28.2604 47.3646L15.6655 42.9402C15.2682 42.7994 15 42.4173 15 41.9849C15 41.5525 15.2682 41.1704 15.6655 41.0397L28.2604 36.6253L32.5514 23.6838C32.6905 23.2715 33.0679 23 33.495 23C33.9221 23 34.2996 23.2715 34.4387 23.6838L38.7396 36.6354L51.3345 41.0497C51.7318 41.1905 52 41.5726 52 41.995C52 42.4173 51.7318 42.8095 51.3345 42.9503L38.7396 47.3747L34.4387 60.3162C34.2996 60.7285 33.9221 61 33.495 61V60.9799ZM19.0228 41.9849L29.3729 45.615C29.6609 45.7155 29.8894 45.9468 29.9887 46.2485L33.495 56.8169L37.0113 46.2485C37.1106 45.9569 37.3391 45.7256 37.6271 45.615L47.9772 41.9849L37.637 38.3549C37.349 38.2543 37.1205 38.023 37.0212 37.7214L33.505 27.1429L29.9987 37.7214C29.8993 38.013 29.6709 38.2543 29.3828 38.3549L19.0427 41.9849H19.0228Z"></path>
<path fill="white" d="M14 34.9804C13.5727 34.9804 13.1951 34.7157 13.056 34.3137L10.6712 27.3039L3.66576 24.9118C3.26829 24.7745 3 24.402 3 23.9902C3 23.5784 3.26829 23.1961 3.66576 23.0686L10.6712 20.6765L13.056 13.6667C13.1951 13.2647 13.5727 13 14 13C14.4273 13 14.8049 13.2647 14.944 13.6667L17.3388 20.6863L24.3342 23.0784C24.7317 23.2157 25 23.5882 25 24C25 24.4118 24.7317 24.7941 24.3342 24.9216L17.3388 27.3137L14.944 34.3333C14.8049 34.7353 14.4273 35 14 35V34.9804ZM7.03433 23.9804L11.7841 25.6078C12.0723 25.7059 12.3008 25.9314 12.4002 26.2255L14 30.9314L15.6098 26.2157C15.7091 25.9314 15.9377 25.7059 16.2258 25.6078L20.9657 23.9804L16.2258 22.3627C15.9377 22.2647 15.7091 22.0392 15.6098 21.7549L14 17.0392L12.4002 21.7451C12.3008 22.0294 12.0723 22.2647 11.7841 22.3627L7.03433 23.9804Z"></path>
</svg>
